<svg xmlns="http://www.w3.org/2000/svg" viewBox="0 0 768 768" fill="none" shape-rendering="auto"><metadata xmlns:rdf="http://www.w3.org/1999/02/22-rdf-syntax-ns#" xmlns:xsi="http://www.w3.org/2001/XMLSchema-instance" xmlns:dc="http://purl.org/dc/elements/1.1/" xmlns:dcterms="http://purl.org/dc/terms/"><rdf:RDF><rdf:Description><dc:title>ToonHead</dc:title><dc:creator>Johan Melin</dc:creator><dc:source xsi:type="dcterms:URI">https://www.figma.com/community/file/1589627891082866389</dc:source><dcterms:license xsi:type="dcterms:URI">https://creativecommons.org/licenses/by/4.0/</dcterms:license><dc:rights>Remix of „ToonHead” (https://www.figma.com/community/file/1589627891082866389) by „Johan Melin”, licensed under „CC BY 4.0” (https://creativecommons.org/licenses/by/4.0/)</dc:rights></rdf:Description></rdf:RDF></metadata><mask id="viewboxMask"><rect width="768" height="768" rx="0" ry="0" x="0" y="0" fill="#fff" /></mask><g mask="url(#viewboxMask)"><g transform="translate(0 10)"><path d="M384.5 330c69.54 0 138.96 29.46 167.55 88.22 6.94 14.26 7.73 25.3 5.89 34.87-1.85 9.6-6.34 17.72-10.05 26.3-3.7 8.52-6.59 17.41-5.05 28.37 1.53 10.94 7.47 23.88 21.25 40.54 17.88 21.61 23.35 40.5 19.69 56.66-3.67 16.18-16.5 29.8-35.6 40.77-38.2 21.97-101.14 33.23-164.1 33.5-62.97.29-125.82-10.4-163.89-32.24-19.03-10.9-31.8-24.55-35.36-40.92-3.57-16.36 2.02-35.6 20.03-57.77 13.52-16.67 19.33-29.6 20.82-40.55s-1.35-19.84-4.99-28.37c-3.63-8.56-8.02-16.7-9.79-26.3-1.77-9.58-.92-20.62 6.02-34.88 28.62-58.75 98.03-88.2 167.57-88.2Z" fill="#724133" stroke="black"/><path d="M261.1 418.6c41.82-117.47 202.94-117.47 244.76 0 5.08 14.26 5.66 25.32 4.31 34.91-1.35 9.63-4.64 17.77-7.35 26.31s-4.8 17.39-3.67 28.3 5.45 23.82 15.53 40.47c13.07 21.6 17.1 40.5 14.4 56.71-2.68 16.21-12.08 29.8-26.02 40.75-27.9 21.92-73.86 33.16-119.87 33.44s-91.92-10.4-119.72-32.17c-13.9-10.88-23.23-24.5-25.85-40.91-2.61-16.4 1.5-35.66 14.66-57.82 9.9-16.66 14.14-29.57 15.22-40.47 1.1-10.9-.98-19.77-3.64-28.3s-5.88-16.68-7.18-26.3c-1.3-9.6-.67-20.65 4.42-34.92Z" fill="black" fill-opacity="0.2" stroke="black"/></g><path d="M432.5 556.5v69.45l.4.07c120.31 22.8 211.36 128.92 211.6 256.48h-520c.24-127.56 91.29-233.7 211.6-256.48l.4-.07V556.5z" fill="#f1c3a5" stroke="black"/><path d="M336 556h97v37s-30.58 9.4-49 9.5c-19.59.1-48-9.5-48-9.5z" fill="black" fill-opacity="0.2"/><path d="M191.5 452.5c-20-77.5 33.5-50 33.5-50C189.18 286.68 217 140 384 140s194.82 146.68 159 262.5c0 0 53.5-27.5 33.5 50-11.1 43-51 43-51 43C519.57 545.9 434 591 384 591s-135.57-45.1-141.5-95.5c0 0-39.9 0-51-43Z" fill="#f1c3a5" stroke="black"/><path d="M202.22 410c19.81-10.14 38.7 54.5 30 69-16.5 8.5-55-56.21-30-69m363.96 0c-19.82-10.14-38.7 54.5-30 69 16.5 8.5 55-56.21 30-69M384 469.5c-7.81 0-18-7.5-16-9.5 2-3 8.19 3 16 3s14-6 16-3c1.81 2.17-8.19 9.5-16 9.5" fill="black" fill-opacity="0.2"/><path d="M455 878.5V648s-40.54 28.56-71 27-68.5-27-68.5-27v230.5z" fill="#ec4899"/><path d="M455 878.5V648s-40.54 28.56-71 27-68.5-27-68.5-27v230.5z" fill="black" fill-opacity="0.2" stroke="black"/><g fill="#ec4899"><path d="M610.5 679C591.42 661 433 624.5 433 624.5s14.17 26.29 15 50.5c2.69 78.5-5 205-5 205h217s-19.5-172.7-49.5-201M108 880h227.5s-8.95-126.5-8.5-205c.13-23.24 9.5-50.5 9.5-50.5s-102.1 16.64-129.5 33C171 679 108 880 108 880"/><path d="M610.5 679C591.42 661 433 624.5 433 624.5s14.17 26.29 15 50.5c2.69 78.5-5 205-5 205h217s-19.5-172.7-49.5-201ZM108 880h227.5s-8.95-126.5-8.5-205c.13-23.24 9.5-50.5 9.5-50.5s-102.1 16.64-129.5 33C171 679 108 880 108 880Z" stroke="black"/></g><mask id="mouthLaugh-a" style="mask-type:alpha" maskUnits="userSpaceOnUse" x="336" y="487" width="97" height="52"><path d="M384.13 487.07c19.7 0 33.7-1.33 47.46 7.54 4.36 2.81-12.42 44.35-47.46 44.35s-51.81-41.54-47.45-44.35c13.75-8.87 27.75-7.54 47.45-7.54" fill="#611519"/></mask><g mask="url(#mouthLaugh-a)"><path d="M384.13 487.07c19.7 0 33.7-1.33 47.46 7.54 4.36 2.81-12.42 44.35-47.46 44.35s-51.81-41.54-47.45-44.35c13.75-8.87 27.75-7.54 47.45-7.54" fill="#611519"/><path d="M384.13 485.3c.04 0 18.64 0 29.27 1.33 7 .87 12.86 5.32 12.86 5.32s-1.76 4.31-3.54 6.65a37 37 0 0 1-4.44 4.44s-9.37-2.44-15.52-3.1c-7.4-.8-18.6-.9-18.63-.9 0 0-11.22.09-18.62.9-6.14.66-15.5 3.09-15.53 3.1 0 0-2.95-2.5-4.43-4.44-1.79-2.34-3.55-6.64-3.55-6.65.02-.01 5.87-4.45 12.86-5.32 10.64-1.33 29.27-1.33 29.27-1.33" fill="#F6F1E4"/><path d="M384.13 519.89c.03 0 9.48.24 15.08 2.22 5.27 1.85 12.42 7.1 12.42 7.1s-5.96 6.92-11.09 9.3c-5.85 2.73-16.38 2.23-16.4 2.22 0 0-10.56.52-16.42-2.21-5.12-2.39-11.07-9.3-11.09-9.32.02-.01 7.16-5.24 12.42-7.1 5.62-1.97 15.08-2.21 15.08-2.21" fill="#E0564B"/></g><path fill-rule="evenodd" clip-rule="evenodd" d="m543 403.06-1-.06 1 .06v.08l-.02.24a234 234 0 0 1-.34 4.5 519 519 0 0 1-7.31 54.05c-3 15.6-7.06 32.1-12.54 46.47-5.5 14.35-12.4 26.7-21.2 33.87-34.37 30.1-77.5 50.23-118.13 50.23s-83.76-20.13-118.13-50.23l-.82-.68c-8.38-7.26-15.04-19.3-20.34-33.19-5.48-14.37-9.55-30.87-12.54-46.46a519 519 0 0 1-7.65-58.56v-.3l1-.08-1 .06 1.92-.4c6.7 18.83 14.4 47.67 26.88 71.97 12.34 24.02 29.13 43.14 53.78 43.85 1.7-15.95 11.7-27.9 25.7-35.85 14.26-8.1 32.75-12.13 51.2-12.13s36.92 4.03 51.2 12.13c14 7.96 24 19.9 25.7 35.85 24.64-.7 41.43-19.83 53.77-43.85 12.5-24.3 20.2-53.14 26.88-71.96zM383.5 487c-34.66 0-51.49 23-54.18 43.15-1.33 10.04.8 19.54 6.2 25.1a16 16 0 0 0 10.48 4.88c4.22.3 9.07-.84 14.47-3.75 1.81-.97 3.38-2.64 4.87-4.46 1.55-1.89 2.96-3.85 4.67-5.83 3.34-3.85 7.34-7.1 13.5-7.1 6.14 0 10.14 3.25 13.48 7.1 1.71 1.98 3.12 3.94 4.67 5.83 1.5 1.82 3.05 3.49 4.86 4.46 5.4 2.9 10.26 4.06 14.48 3.75a16 16 0 0 0 10.47-4.88c5.4-5.56 7.54-15.06 6.2-25.1C435 510 418.17 487 383.5 487Z" fill="#724133" stroke="black"/><path d="M321.5 373.47c29 10 22.5 53 22.5 53s-8 21-52.5 11c-27.15-6.1-26.5-41-26.5-41s27.5-33 56.5-23" fill="#F6F1E4"/><circle cx="314" cy="413.473" r="27" fill="#4B2422"/><path d="M266.5 380.97h7s22.06-25.12 53-8c23.5 13 18 43 18 43s1.25-43-37-43-37.5 46-37.5 46-3.18-5.55-4.25-9.75L263 398.47l-10-7.5h18.5z" fill="#4B2422"/><path d="M445.56 373.47c-29 10-22.5 53-22.5 53s8 21 52.5 11c27.15-6.1 26.5-41 26.5-41s-27.5-33-56.5-23" fill="#F6F1E4"/><circle cx="27" cy="27" r="27" transform="matrix(-1 0 0 1 480.06 386.47)" fill="#4B2422"/><path d="M500.56 380.97h-7s-22.06-25.12-53-8c-23.5 13-18 43-18 43s-1.25-43 37-43 37.5 46 37.5 46 3.18-5.55 4.25-9.75l2.75-10.75 10-7.5h-18.5z" fill="#4B2422"/><g fill="#724133"><path d="M305.33 338.35c14.64-4.35 32.5 9 39-4s-30.66-19.03-47-13c-14.03 5.17-32 23.5-29 25s22.83-3.8 37-8m158.43 0c-14.64-4.35-32.5 9-39-4s30.65-19.03 47-13c14.02 5.17 32 23.5 29 25s-22.83-3.8-37-8"/><path d="M305.33 338.35c14.64-4.35 32.5 9 39-4s-30.66-19.03-47-13c-14.03 5.17-32 23.5-29 25s22.83-3.8 37-8Zm158.43 0c-14.64-4.35-32.5 9-39-4s30.65-19.03 47-13c14.02 5.17 32 23.5 29 25s-22.83-3.8-37-8Z" stroke="black"/></g><path d="m543.5 402.5 13-5.5s28.48-120.79 13-178c-8.35-30.85-74-47.5-74-47.5s0-81.41-152-47c-105.94 23.98-164.98 107.13-146.5 205 5.57 29.49 13.47 40.2 19 69.5l8.5 3L249 297s70.6-1.43 112-15 100-54.5 100-54.5 39.82 28.78 56.5 54.5c26.2 40.39 26 120.5 26 120.5Z" fill="#724133" stroke="black"/></g></svg>